<svg xmlns="http://www.w3.org/2000/svg" xmlns:xlink="http://www.w3.org/1999/xlink" width="193.865" height="146.976" viewBox="0 0 193.865 146.976"><defs><style>.a{fill:url(#a);}.b{fill:url(#d);}.c{filter:url(#b);}</style><linearGradient id="a" x1="0.5" y1="1" x2="0.5" gradientUnits="objectBoundingBox"><stop offset="0" stop-color="#cdeffc"/><stop offset="1" stop-color="#fff"/></linearGradient><filter id="b" x="0" y="0" width="193.865" height="146.976" filterUnits="userSpaceOnUse"><feOffset dy="12" input="SourceAlpha"/><feGaussianBlur stdDeviation="12" result="c"/><feFlood flood-color="#008ee8" flood-opacity="0.161"/><feComposite operator="in" in2="c"/><feComposite in="SourceGraphic"/></filter><linearGradient id="d" x1="0.5" x2="0.5" y2="1" gradientUnits="objectBoundingBox"><stop offset="0" stop-color="#113fb7"/><stop offset="1" stop-color="#008ee8"/></linearGradient></defs><g transform="translate(36 20.429)"><g transform="translate(0 3.571)"><g class="c" transform="matrix(1, 0, 0, 1, -36, -24)"><path class="a" d="M121.866,106v71.406a3.57,3.57,0,0,1-3.57,3.57H3.571A3.57,3.57,0,0,1,0,177.407V106Z" transform="translate(36 -82)"/></g></g><g transform="translate(0 0)"><path class="b" d="M60.933,140.984a23.543,23.543,0,0,1-15.3-5.659L1.247,97.281A3.57,3.57,0,0,1,3.57,91H118.3a3.57,3.57,0,0,1,2.323,6.281L76.237,135.324a23.542,23.542,0,0,1-15.3,5.661Z" transform="translate(0 -91)"/></g></g></svg>