<svg xmlns="http://www.w3.org/2000/svg" xmlns:xlink="http://www.w3.org/1999/xlink" width="25.907" height="40.196" viewBox="0 0 25.907 40.196"><defs><style>.a{fill:url(#a);}.b{fill:#fff;}.c{fill:url(#b);}</style><linearGradient id="a" x1="0.5" y1="1" x2="0.5" gradientUnits="objectBoundingBox"><stop offset="0" stop-color="#113fb7"/><stop offset="1" stop-color="#00a8e8"/></linearGradient><linearGradient id="b" x1="0.5" y1="1" x2="0.5" gradientUnits="objectBoundingBox"><stop offset="0" stop-color="#cbf6fd"/><stop offset="0.503" stop-color="#cbf6fd"/><stop offset="1" stop-color="#eaf6ff"/></linearGradient></defs><g transform="translate(1.178 0)"><g transform="translate(0 0)"><path class="a" d="M114.559,13.93l1.412,1.771h3.768l1.255-1.771a18.289,18.289,0,0,0,2.671-.688l1.178-2.252V1.255L123.665,0H111.888l-1.178,1.648v9.735l1.178,1.859a18.183,18.183,0,0,0,2.671.688Zm3.217,2.634a11.816,11.816,0,1,0,11.776,11.776A11.79,11.79,0,0,0,117.776,16.565Z" transform="translate(-106 0)"/><g transform="translate(8.563 25.613)"><g transform="translate(0 0)"><g transform="translate(0 0)"><g transform="translate(0 0)"><path class="b" d="M3.048,7.328a.094.094,0,0,1-.04-.009l-.215-.1-.452-.85a.062.062,0,0,0-.056-.034.064.064,0,0,0-.031.008.05.05,0,0,0-.015.012.063.063,0,0,0-.011.075l.371.7-.337-.16L2.2,6.938l-.75-1.41A.065.065,0,0,0,1.4,5.494a.063.063,0,0,0-.029.007.073.073,0,0,0-.016.012.064.064,0,0,0-.011.075l.669,1.259L1.6,6.651,1.288,6.07a.062.062,0,0,0-.056-.034.064.064,0,0,0-.03.007.072.072,0,0,0-.016.012.064.064,0,0,0-.011.075L1.4,6.56l-.173-.082a1.17,1.17,0,0,1-.529-.5L.354,5.331.182,5.012a.529.529,0,0,1,.106-.64c.182-.168.35-.331.5-.484.566-.581.857-.988.775-1.472-.107-.628-.577-.981-1.4-1.05a.178.178,0,0,1-.156-.229C.069.93.181.557.252.319L.278.233A.324.324,0,0,1,.59,0L.631,0a2.536,2.536,0,0,1,2.3,1.744,2.66,2.66,0,0,1-.888,2.885.363.363,0,0,0-.067.428l.187.347.068.125.893,1.658a.091.091,0,0,1,0,.091A.093.093,0,0,1,3.048,7.328Z" transform="translate(3.126 0)"/><path class="b" d="M.476,6.345H.442l-.009,0-.008,0-.008,0-.007,0-.008,0-.007,0-.007,0L.38,6.314.374,6.309.367,6.3.362,6.3.356,6.29.351,6.283l0-.007,0-.008,0-.007,0-.009,0-.008,0-.009,0-.009V6.2l0-.009,0-.011,0-.01.689-2.034s.034-.084,0-.122a.172.172,0,0,0-.112-.03H.149l-.009,0-.008,0-.008,0-.007,0-.008,0-.007,0-.007,0-.007,0-.007,0-.006,0-.006,0L.06,3.941.055,3.936.049,3.93.043,3.924l0-.005,0-.006L.029,3.906l0-.007,0-.007,0-.007,0-.007,0-.007,0-.007,0-.008,0-.007,0-.008,0-.008V3.79l0-.008V3.773l0-.008,0-.008L1.151.189l0-.008,0-.008,0-.008,0-.008,0-.008,0-.007,0-.007,0-.008,0-.007L1.191.112,1.2.105,1.2.1,1.206.093,1.212.086,1.219.08,1.224.074,1.23.068l.007,0L1.244.058,1.25.052l.007,0L1.265.042l.007,0,.007,0,.007,0,.008,0,.007,0,.008,0,.008,0,.008,0,.008,0,.008,0H1.35l.009,0h.008l.009,0h.149L1.251.9a.065.065,0,0,0,.043.08l.018,0A.066.066,0,0,0,1.374.933L1.66,0h.275L1.527,1.333a.064.064,0,0,0,.042.08l.019,0a.064.064,0,0,0,.061-.045L2.069,0h.279L2.178.553a.061.061,0,0,0,0,.048A.064.064,0,0,0,2.22.633l.02,0A.062.062,0,0,0,2.3.59L2.481,0H2.64l.008,0,.008,0,.007,0,.008,0,.007,0,.007,0,.007,0,.006,0,.006,0,.006,0,.006.005.005,0,.005.005.005.006L2.74.063l0,.006,0,.006,0,.007,0,.006L2.76.1l0,.006,0,.007,0,.008,0,.007,0,.008,0,.007,0,.008V.2l0,.009,0,.008,0,.008-.5,1.6c0,.005-.165.514,0,.763s.648.25.669.25l.583,0h.026l.013,0,.013,0,.012,0,.012,0,.011,0,.01.005.011.005.01.006.009.007.009.008.008.008.008.008.007.009.006.009.007.009.005.01.005.011,0,.01,0,.011,0,.011,0,.011,0,.012,0,.011v.047l0,.011,0,.012,0,.012,0,.011,0,.012-.005.011L3.7,3.142l-.006.01-.007.011-.009.01-.009.01L.559,6.305l-.007.007-.008.006-.008.005L.527,6.33l-.008,0-.009,0-.008,0-.009,0-.008,0Z" transform="translate(0 0)"/><path class="b" d="M388.1,158.969c.534-.549.859-.974.774-1.472q-.161-.946-1.4-1.05a.179.179,0,0,1-.156-.229l.27-.9a.326.326,0,0,1,.353-.23,2.528,2.528,0,0,1,2.305,1.744,2.221,2.221,0,0,1-.683,1.872,3,3,0,0,1-1.964.754Q387.881,159.191,388.1,158.969Z" transform="translate(-384.183 -155.081)"/></g></g></g></g></g></g><g transform="translate(0 0)"><g transform="translate(0 0)"><path class="c" d="M103.954,18.92a3.531,3.531,0,0,0,3.217-4.99,18.268,18.268,0,0,1-3.217.286,18.3,18.3,0,0,1-3.217-.286,3.531,3.531,0,0,0,3.217,4.99ZM91,1.177V8.321a1.176,1.176,0,0,0,.366.853,18.224,18.224,0,0,0,6.7,4.068V0H92.178A1.177,1.177,0,0,0,91,1.177ZM115.731,0h-5.888V13.242a18.237,18.237,0,0,0,6.7-4.068,1.178,1.178,0,0,0,.364-.853V1.177A1.177,1.177,0,0,0,115.731,0Z" transform="translate(-91 0)"/></g></g></svg>