<svg xmlns="http://www.w3.org/2000/svg" xmlns:xlink="http://www.w3.org/1999/xlink" width="34.814" height="39.61" viewBox="0 0 34.814 39.61"><defs><style>.a{fill:url(#a);}.b{fill:url(#b);}.c{fill:#fff;}</style><linearGradient id="a" x1="0.5" x2="0.5" y2="1" gradientUnits="objectBoundingBox"><stop offset="0" stop-color="#fff6cd"/><stop offset="1" stop-color="#ffea9b"/></linearGradient><linearGradient id="b" x1="0.5" y1="1" x2="0.5" gradientUnits="objectBoundingBox"><stop offset="0" stop-color="#fe4332"/><stop offset="1" stop-color="#ffb408"/></linearGradient></defs><g transform="translate(0)"><g transform="translate(0)"><path class="a" d="M47.225,20.027a1.16,1.16,0,0,0-.917-1.361c-5.6-1.089-12.089-6.059-12.9-11.7h5.859a1.16,1.16,0,1,0,0-2.321h-7.1A1.16,1.16,0,0,0,31,5.8c0,7.282,7.8,13.767,14.864,15.142A1.161,1.161,0,0,0,47.225,20.027ZM64.653,4.642h-7.1a1.16,1.16,0,0,0,0,2.321h5.859c-.815,5.65-7.314,10.616-12.9,11.7a1.16,1.16,0,1,0,.444,2.278C58,19.571,65.814,13.092,65.814,5.8a1.16,1.16,0,0,0-1.16-1.16ZM36.8,2.321h1.173l1.69,1.006H57.149l1.69-1.006h1.173a1.16,1.16,0,0,0,0-2.321H36.8a1.16,1.16,0,0,0,0,2.321ZM57.691,30.327a1.16,1.16,0,0,0,0-2.321H54.209l-1.47-1.083h-8.51L42.6,28.006H39.123a1.16,1.16,0,0,0,0,2.321h1.16V37.29h-1.16a1.16,1.16,0,0,0,0,2.321H57.691a1.16,1.16,0,0,0,0-2.321H56.53V30.327Z" transform="translate(-31)"/></g><g transform="translate(6.975 2.321)"><path class="b" d="M138.361,44.895c2.3-3.477,3.531-8.484,3.662-14.895H121.159c.131,6.411,1.361,11.418,3.662,14.895a10.429,10.429,0,0,0,3.289,3.305v2.843h-1.16a1.161,1.161,0,0,0-1.16,1.16v3.481h11.6V52.2a1.161,1.161,0,0,0-1.16-1.16h-1.16V48.2A10.427,10.427,0,0,0,138.361,44.895Zm-4.449,15.432H129.27a1.16,1.16,0,0,0,0,2.321h4.642a1.16,1.16,0,1,0,0-2.321Z" transform="translate(-121.159 -30)"/><g transform="translate(7.245 5.516)"><g transform="translate(0 0)"><g transform="translate(0)"><path class="c" d="M3.048,7.328a.094.094,0,0,1-.04-.009l-.216-.1-.452-.85a.061.061,0,0,0-.055-.033.062.062,0,0,0-.031.008.051.051,0,0,0-.016.011.065.065,0,0,0-.011.076l.371.7-.4-.188-.749-1.41A.065.065,0,0,0,1.4,5.494a.063.063,0,0,0-.029.007.073.073,0,0,0-.016.012.064.064,0,0,0-.011.075l.669,1.259L1.6,6.651,1.288,6.07a.064.064,0,0,0-.056-.035.061.061,0,0,0-.03.008.053.053,0,0,0-.016.012.063.063,0,0,0-.011.075L1.4,6.56l-.172-.081a1.17,1.17,0,0,1-.529-.5L.354,5.331.182,5.012a.529.529,0,0,1,.106-.64c.182-.168.35-.331.5-.484.566-.581.857-.988.775-1.472-.107-.628-.577-.981-1.4-1.05a.178.178,0,0,1-.156-.229C.069.93.181.557.252.319L.278.233A.324.324,0,0,1,.59,0L.631,0a2.536,2.536,0,0,1,2.3,1.744,2.66,2.66,0,0,1-.888,2.885.363.363,0,0,0-.067.428l.187.347.068.125.893,1.658a.091.091,0,0,1,0,.091A.093.093,0,0,1,3.048,7.328Z" transform="translate(3.126 0)"/><path class="c" d="M.476,6.345H.442l-.009,0-.008,0-.008,0-.007,0-.008,0-.007,0-.007,0L.38,6.314.374,6.309.367,6.3.362,6.3.356,6.29.351,6.283l0-.007,0-.008,0-.007,0-.009,0-.008,0-.009,0-.009V6.2l0-.009,0-.011,0-.01.689-2.034s.034-.084,0-.122a.172.172,0,0,0-.112-.03H.149l-.009,0-.008,0-.008,0-.007,0-.008,0-.007,0-.007,0-.007,0-.007,0-.006,0-.006,0L.06,3.941.055,3.936.049,3.93.043,3.924l0-.005,0-.006L.029,3.906l0-.007,0-.007,0-.007,0-.007,0-.007,0-.007,0-.008,0-.007,0-.008,0-.008V3.79l0-.008V3.773l0-.008,0-.008L1.151.189l0-.008,0-.008,0-.008,0-.008,0-.008,0-.007,0-.007,0-.008,0-.007L1.191.112,1.2.105,1.2.1,1.206.092,1.212.086,1.219.08,1.224.074,1.23.068l.007,0L1.244.058,1.25.052l.007,0L1.265.042l.007,0,.007,0,.007,0,.008,0,.007,0,.008,0,.008,0,.008,0,.008,0,.008,0H1.35l.009,0h.008l.009,0h.149L1.251.9a.065.065,0,0,0,.043.08l.018,0A.066.066,0,0,0,1.374.933L1.66,0h.275L1.527,1.333a.064.064,0,0,0,.042.08l.019,0a.064.064,0,0,0,.061-.045L2.069,0h.278L2.178.553a.064.064,0,0,0,.042.08l.02,0A.062.062,0,0,0,2.3.59L2.481,0H2.64l.008,0,.008,0,.007,0,.008,0,.007,0,.007,0,.007,0,.006,0,.006,0,.006,0,.006.005.005,0,.005.005.005.006L2.74.063l0,.006,0,.006,0,.007,0,.006L2.76.1l0,.006,0,.007,0,.008,0,.007,0,.008,0,.007,0,.008V.2l0,.009,0,.008,0,.008-.5,1.6c0,.005-.165.514,0,.763s.648.25.669.25l.583,0h.026l.013,0,.013,0,.012,0,.012,0,.011,0,.011.005.01.005.01.006.009.007.009.008.008.008.008.008.007.009.006.009.007.009.005.01.005.011,0,.01,0,.011,0,.011,0,.011,0,.012,0,.011v.047l0,.011,0,.012,0,.012,0,.011,0,.012-.005.011L3.7,3.142l-.006.01-.007.011-.009.01-.009.01L.559,6.305l-.007.007-.008.006-.008.005L.527,6.33l-.008,0-.009,0-.008,0-.009,0-.008,0Z" transform="translate(0 0)"/><path class="c" d="M388.1,158.969c.534-.549.859-.974.774-1.472q-.161-.946-1.4-1.05a.178.178,0,0,1-.156-.229l.27-.9a.326.326,0,0,1,.353-.23,2.528,2.528,0,0,1,2.3,1.744,2.222,2.222,0,0,1-.683,1.872,3,3,0,0,1-1.964.754Q387.881,159.191,388.1,158.969Z" transform="translate(-384.183 -155.081)"/></g></g></g></g></g></svg>